<?xml version="1.0" standalone="no"?>
<!DOCTYPE svg PUBLIC "-//W3C//DTD SVG 20010904//EN"
 "http://www.w3.org/TR/2001/REC-SVG-20010904/DTD/svg10.dtd">
<svg version="1.0" xmlns="http://www.w3.org/2000/svg"
 width="902.000000pt" height="902.000000pt" viewBox="0 0 902.000000 902.000000"
 preserveAspectRatio="xMidYMid meet">
<metadata>
Created by potrace 1.11, written by Peter Selinger 2001-2013
</metadata>
<g transform="translate(0.000000,902.000000) scale(0.100000,-0.100000)"
fill="#000000" stroke="none">
<path d="M4347 9014 c-1 -1 -27 -4 -57 -7 -66 -7 -77 -9 -160 -37 -36 -12 -69
-23 -75 -24 -5 -1 -28 -10 -50 -20 -78 -34 -110 -48 -115 -48 -3 0 -17 -9 -32
-20 -16 -11 -28 -16 -28 -13 0 3 -13 -3 -29 -14 -16 -12 -32 -21 -35 -21 -15
0 -232 -149 -320 -220 -89 -72 -254 -253 -419 -460 -7 -8 -37 -51 -67 -95 -30
-44 -58 -82 -61 -85 -4 -3 -19 -30 -35 -60 -27 -52 -48 -81 -86 -122 -10 -10
-18 -20 -18 -23 0 -7 -104 -159 -115 -167 -5 -4 -6 -8 -1 -8 4 0 -3 -15 -16
-32 -13 -18 -30 -49 -38 -68 -7 -19 -22 -49 -32 -67 -11 -19 -15 -34 -9 -38
13 -8 -13 -64 -59 -130 -20 -27 -41 -62 -48 -77 -6 -16 -16 -28 -22 -28 -5 0
-10 -7 -10 -15 0 -7 -7 -18 -16 -23 -9 -5 -15 -12 -15 -15 1 -4 -6 -23 -14
-43 -8 -20 -15 -40 -15 -44 0 -5 -3 -10 -7 -12 -9 -4 -39 -63 -48 -95 -3 -13
-11 -23 -16 -23 -5 0 -9 -11 -9 -25 0 -15 -11 -36 -25 -49 -18 -17 -26 -37
-30 -77 -7 -67 -9 -77 -23 -112 -7 -16 -12 -33 -12 -38 0 -6 -10 -20 -23 -32
-32 -31 -63 -87 -71 -130 -4 -20 -11 -37 -16 -37 -6 0 -10 -9 -10 -20 0 -11
-3 -20 -8 -20 -4 0 -8 -12 -9 -27 -3 -57 -8 -73 -20 -73 -7 0 -13 -9 -13 -20
0 -12 -7 -34 -15 -50 -9 -17 -13 -30 -10 -30 3 0 -2 -17 -11 -37 -9 -21 -17
-55 -19 -76 -4 -46 -45 -169 -60 -179 -5 -4 -7 -8 -4 -8 4 0 -4 -35 -18 -77
-14 -43 -27 -87 -29 -98 -2 -11 -6 -30 -8 -42 -3 -12 -10 -31 -16 -43 -9 -16
-9 -25 -1 -33 8 -8 5 -17 -10 -33 -11 -12 -21 -31 -22 -43 -1 -11 -6 -21 -11
-21 -5 0 -6 -3 -3 -7 4 -3 2 -12 -4 -20 -6 -7 -9 -13 -6 -13 3 0 0 -15 -8 -34
-8 -18 -11 -36 -8 -39 3 -4 1 -13 -5 -20 -7 -8 -9 -17 -6 -20 3 -3 -3 -23 -14
-44 -18 -33 -70 -188 -79 -233 -3 -19 -12 -86 -17 -126 -2 -17 -6 -35 -9 -40
-3 -5 -8 -26 -11 -47 -3 -21 -11 -47 -16 -57 -15 -28 -12 -37 13 -44 12 -3 28
-15 35 -27 12 -18 10 -28 -11 -72 -14 -29 -25 -61 -25 -72 0 -11 -14 -50 -31
-86 -28 -63 -69 -168 -76 -199 -2 -8 -4 -17 -5 -20 -1 -3 -2 -8 -1 -12 0 -5
-4 -8 -11 -8 -6 0 -9 -3 -6 -6 4 -3 -2 -24 -12 -47 -22 -52 -33 -80 -34 -87
-1 -3 -11 -30 -23 -60 -37 -92 -46 -115 -49 -125 -2 -9 -39 -112 -51 -145 -4
-8 -7 -17 -8 -20 0 -3 -9 -31 -18 -62 -10 -32 -18 -60 -18 -63 0 -2 -9 -35
-20 -72 -22 -79 -31 -139 -30 -208 3 -137 28 -183 190 -350 174 -179 484 -447
656 -566 63 -44 91 -66 138 -110 34 -33 42 -50 51 -109 4 -23 50 -41 111 -42
31 -1 58 -5 60 -9 5 -6 -10 -23 -56 -62 -45 -38 -151 -131 -178 -155 -14 -13
-44 -36 -66 -50 -22 -15 -43 -31 -46 -35 -3 -5 -10 -9 -15 -9 -15 0 -114 -69
-114 -79 0 -5 -3 -8 -7 -7 -27 6 -70 -35 -118 -111 -5 -9 -12 -18 -15 -21 -12
-11 -81 -150 -74 -150 3 0 2 -6 -4 -13 -6 -7 -13 -24 -15 -37 -3 -14 -11 -38
-18 -55 -7 -16 -13 -32 -14 -35 -2 -7 -24 -61 -32 -80 -7 -17 -6 -12 -23 -70
-7 -25 -12 -56 -12 -69 1 -13 -7 -38 -17 -55 -20 -32 -29 -70 -35 -141 -2 -22
-13 -56 -24 -75 -12 -19 -23 -48 -26 -63 -7 -41 -27 -100 -39 -114 -5 -7 -7
-13 -4 -13 4 0 -2 -20 -13 -45 -11 -25 -17 -45 -13 -45 3 0 0 -6 -6 -13 -6 -8
-8 -17 -4 -20 3 -4 1 -7 -6 -7 -7 0 -9 -5 -6 -10 4 -6 2 -16 -3 -23 -8 -10
-91 -257 -98 -292 -1 -5 -11 -38 -22 -72 -11 -33 -17 -66 -13 -71 7 -12 6408
-15 6416 -3 7 12 -149 550 -204 701 -17 47 -31 94 -31 106 0 11 -4 24 -9 30
-5 5 -12 32 -15 61 -3 29 -15 76 -25 105 -11 29 -27 82 -36 118 -38 154 -90
311 -129 390 -22 47 -44 86 -48 88 -5 2 -8 11 -8 21 0 9 -8 26 -17 37 -10 11
-23 29 -29 40 -6 10 -48 45 -95 77 -46 31 -103 75 -127 96 -40 35 -42 41 -30
60 10 16 10 25 1 40 -10 15 -9 20 2 25 11 4 15 22 15 66 0 51 3 60 18 60 10 0
22 4 27 9 6 5 33 12 60 16 28 3 58 7 69 9 10 1 28 12 40 23 11 10 28 22 38 26
9 3 22 18 30 34 7 15 19 28 26 28 7 0 17 7 22 15 13 20 13 93 0 106 -15 15 7
149 31 197 17 31 17 37 4 37 -10 0 -15 10 -15 31 0 31 0 31 25 15 16 -11 34
-14 47 -10 11 3 114 99 228 213 242 241 281 296 283 403 2 143 -20 258 -104
533 -28 94 -57 190 -64 215 -16 53 -61 186 -74 215 -5 11 -14 49 -20 85 -7 36
-25 110 -42 165 -16 55 -31 116 -33 135 -8 59 -16 103 -32 160 -8 30 -17 66
-20 80 -2 14 -7 32 -10 40 -4 8 -14 47 -24 85 -46 175 -153 547 -215 750 -26
83 -49 159 -52 170 -2 11 -8 29 -13 40 -4 11 -34 97 -65 190 -141 419 -342
861 -564 1235 -31 52 -59 102 -62 110 -4 9 -14 22 -23 29 -9 7 -16 17 -16 21
0 5 -16 32 -35 62 -72 110 -200 301 -211 312 -6 6 -19 25 -29 41 -21 33 -73
102 -92 123 -7 7 -13 16 -13 20 0 4 -10 19 -23 34 -12 14 -47 59 -77 98 -72
95 -131 161 -209 234 -36 34 -77 73 -93 88 -15 14 -28 23 -28 20 0 -4 -4 -2
-8 3 -13 19 -205 155 -219 155 -7 0 -13 4 -13 8 0 5 -17 17 -37 28 -68 37 -88
49 -95 59 -4 6 -8 7 -8 3 0 -4 -28 7 -62 25 -67 35 -152 71 -154 65 0 -1 -7 2
-15 8 -8 6 -43 21 -79 32 -140 45 -200 54 -383 56 -98 1 -179 1 -180 0z"/>
</g>
</svg>
